<svg aria-hidden="true" style="position:absolute;width:0;height:0;overflow:hidden" xmlns="http://www.w3.org/2000/svg">
  <defs>
    <symbol id="icon-isername" viewBox="0 0 32 32">
      <path d="M16 16c2.947 0 5.333-2.387 5.333-5.333S18.946 5.334 16 5.334c-2.947 0-5.333 2.387-5.333 5.333S13.054 16 16 16zm0 2.667c-3.56 0-10.667 1.787-10.667 5.333v1.333c0 .733.6 1.333 1.333 1.333h18.667c.733 0 1.333-.6 1.333-1.333V24c0-3.547-7.107-5.333-10.667-5.333z"/>
    </symbol>
    <symbol id="icon-telegram-icon" viewBox="0 0 32 32">
      <path fill="#fff" style="fill:var(--color1, #fff)" d="m32 2.667-32 15 10.227 3.156L26 8.5 14.002 21.988l.01.003-.012-.003v7.345l5.735-5.576L27 25.999l5-23.333z"/>
    </symbol>
    <symbol id="icon-phone" viewBox="0 0 24 32">
      <path d="m19.635 18.487-2.451-.28c-.589-.067-1.167.135-1.582.55l-1.775 1.775c-2.731-1.389-4.969-3.618-6.359-6.359l1.785-1.785c.415-.415.618-.994.55-1.582l-.28-2.432c-.116-.975-.936-1.708-1.92-1.708H5.934c-1.09 0-1.997.907-1.93 1.997.511 8.24 7.102 14.821 15.332 15.332 1.09.068 1.997-.839 1.997-1.93v-1.669c.01-.975-.724-1.795-1.698-1.911z"/>
    </symbol>
    <symbol id="icon-email" viewBox="0 0 24 32">
      <path d="M20 8H4c-1.1 0-1.99.9-1.99 2L2 22c0 1.1.9 2 2 2h16c1.1 0 2-.9 2-2V10c0-1.1-.9-2-2-2zm-.4 4.25-7.07 4.42c-.32.2-.74.2-1.06 0L4.4 12.25c-.25-.16-.4-.43-.4-.72 0-.67.73-1.07 1.3-.72L12 15l6.7-4.19c.57-.35 1.3.05 1.3.72 0 .29-.15.56-.4.72z"/>
    </symbol>
    <symbol id="icon-Vector-1" viewBox="0 0 40 32">
      <path d="M33.782 1.02A3.6575 3.6575 0 0 1 36.321 0h.028-.001c.995.008 1.894.411 2.55 1.06A3.709 3.709 0 0 1 40 3.702c0 .964-.367 1.842-.97 2.502l.003-.003-19.578 24.618c-.33.357-.727.647-1.172.851l-.023.009c-.442.204-.959.322-1.503.322-1.017 0-1.938-.415-2.601-1.084L1.172 17.863c-.354-.333-.642-.731-.843-1.177l-.009-.023c-.201-.443-.318-.96-.318-1.505 0-1.021.412-1.946 1.078-2.618.34-.342.747-.618 1.2-.805l.024-.009c.408-.17.881-.269 1.378-.269.543 0 1.058.118 1.521.33l-.023-.009c.467.212.864.501 1.193.855l.002.002L16.65 22.961l17.042-21.83c.032-.04.064-.075.098-.109h-.005z"/>
    </symbol>
  </defs>
</svg>
